<svg xmlns="http://www.w3.org/2000/svg" xmlns:xlink="http://www.w3.org/1999/xlink" width="1920" zoomAndPan="magnify" viewBox="0 0 1440 809.999993" height="1080" preserveAspectRatio="xMidYMid meet" version="1.0"><defs><filter x="0%" y="0%" width="100%" height="100%" id="633bcf1dc0"><feColorMatrix values="0 0 0 0 1 0 0 0 0 1 0 0 0 0 1 0 0 0 1 0" color-interpolation-filters="sRGB"></feColorMatrix></filter><filter x="0%" y="0%" width="100%" height="100%" id="f8aefad9cd"><feColorMatrix values="0 0 0 0 1 0 0 0 0 1 0 0 0 0 1 0.2126 0.7152 0.0722 0 0" color-interpolation-filters="sRGB"></feColorMatrix></filter><clipPath id="11d0cc734d"><path d="M 333.328125 0 L 1440 0 L 1440 810 L 333.328125 810 Z M 333.328125 0 " clip-rule="nonzero"></path></clipPath><image x="0" y="0" width="1024" id="859d403126" height="1024" preserveAspectRatio="xMidYMid meet"></image><mask id="083cf037ae"><g filter="url(#633bcf1dc0)"><g filter="url(#f8aefad9cd)" transform="matrix(1.114014, 0, 0, 1.114014, 333.328086, -193.279602)"><image x="0" y="0" width="1024" height="1024" preserveAspectRatio="xMidYMid meet"></image></g></g></mask><image x="0" y="0" width="1024" id="175cca6f59" height="1024" preserveAspectRatio="xMidYMid meet"></image><clipPath id="f1f66cc61e"><path d="M 0 74 L 666.75 74 L 666.75 740 L 0 740 Z M 0 74 " clip-rule="nonzero"></path></clipPath><image x="0" y="0" width="1024" id="79162d6928" height="1024" preserveAspectRatio="xMidYMid meet"></image><mask id="39e10ac9fd"><g filter="url(#633bcf1dc0)"><g filter="url(#f8aefad9cd)" transform="matrix(0.651123, 0, 0, 0.651123, 0.00000622222, 73.518184)"><image x="0" y="0" width="1024" height="1024" preserveAspectRatio="xMidYMid meet"></image></g></g></mask><image x="0" y="0" width="1024" id="e5d38a1955" height="1024" preserveAspectRatio="xMidYMid meet"></image></defs><g clip-path="url(#11d0cc734d)"><g mask="url(#083cf037ae)"><g transform="matrix(1.114014, 0, 0, 1.114014, 333.328086, -193.279602)"><image x="0" y="0" width="1024" height="1024" preserveAspectRatio="xMidYMid meet"></image></g></g></g><g clip-path="url(#f1f66cc61e)"><g mask="url(#39e10ac9fd)"><g transform="matrix(0.651123, 0, 0, 0.651123, 0.00000622222, 73.518184)"><image x="0" y="0" width="1024" height="1024" preserveAspectRatio="xMidYMid meet"></image></g></g></g></svg>